<svg width="148" height="28" viewBox="0 0 148 28" fill="none" xmlns="http://www.w3.org/2000/svg">
<path d="M28.1802 17.3968H33.0445V20.4153C33.0445 21.952 33.0445 23.4338 35.3929 23.4338C37.7412 23.4338 37.7971 21.8972 37.7971 19.5921C37.7971 17.781 37.4057 16.9578 36.1197 16.1346L31.479 13.0612C29.0189 11.4147 28.3479 9.60363 28.3479 6.96931C28.3479 4.93868 28.5156 3.01782 30.2489 1.59089C31.1994 0.767663 33.0445 0.0541992 35.5606 0.0541992C38.4121 0.0541992 42.326 1.20672 42.326 5.65214V8.23159H37.5175V6.36561C37.5175 5.10332 37.5175 3.73128 35.3929 3.73128C34.1069 3.73128 33.1564 4.22522 33.1564 6.31072C33.1564 8.39623 33.6596 8.94505 34.7219 9.65851L39.5304 12.8417C40.5368 13.5002 41.3755 14.3783 42.0464 15.3662C42.7733 16.5187 42.7733 17.342 42.7733 19.4275C42.7733 21.7325 42.7733 23.1594 41.8787 24.5315C40.425 26.8365 37.4057 27.1109 35.6165 27.1109C31.479 27.1109 28.292 25.5742 28.292 21.1837L28.1802 17.3968Z" fill="#152733"/>
<path d="M47.973 0.605225H60.7769V4.55671H52.8374V10.6486H60.2737V14.6001H52.8374V22.6128H61.1124V26.6192H47.973V0.605225Z" fill="#152733"/>
<path d="M66.4233 0.605225H71.2318V26.5643H66.4233V0.605225Z" fill="#152733"/>
<path d="M76.4321 17.3968H81.2965V20.4153C81.2965 21.952 81.2965 23.4338 83.6448 23.4338C85.9931 23.4338 86.0491 21.8972 86.0491 19.5921C86.0491 17.781 85.6577 16.9578 84.4276 16.1346L79.7869 13.0612C77.3267 11.4147 76.6558 9.60363 76.6558 6.96931C76.6558 4.93868 76.8235 3.01782 78.5568 1.59089C79.5632 0.767663 81.3524 0.0541992 83.8685 0.0541992C86.72 0.0541992 90.6339 1.20672 90.6339 5.65214V8.23159H85.8254V6.36561C85.8254 5.10332 85.8254 3.73128 83.7007 3.73128C82.4148 3.73128 81.4642 4.22522 81.4642 6.31072C81.4642 8.39623 81.9674 8.94505 82.9739 9.65851L87.7823 12.8417C88.7888 13.5002 89.6274 14.3783 90.2984 15.3662C91.0253 16.5187 91.0253 17.342 91.0253 19.4275C91.0253 21.7325 91.0253 23.1594 90.1307 24.5315C88.6769 26.8365 85.6577 27.1109 83.8685 27.1109C79.731 27.1109 76.544 25.5742 76.544 21.1837L76.4321 17.3968Z" fill="#152733"/>
<path d="M96.225 0.605225H104.109L107.24 18.7711L110.371 0.605225H118.199V26.5643H113.39L113.837 4.06278L109.588 26.5643H105.003L100.642 4.06278L101.033 26.5643H96.225V0.605225Z" fill="#152733"/>
<path d="M123.454 0.605225H128.263V26.5643H123.454V0.605225Z" fill="#152733"/>
<path d="M143.135 10.0983V6.80534C143.135 4.88448 142.8 3.78684 140.675 3.78684C138.551 3.78684 138.439 5.4333 138.439 6.6407V20.5258C138.439 22.0625 138.718 23.4894 140.899 23.4894C143.191 23.4894 143.191 21.843 143.191 20.3063V16.9036H148V20.5807C148 22.6662 148 27.2214 140.787 27.2214C139.389 27.2214 137.209 26.947 135.643 25.9591C133.518 24.587 133.518 22.5564 133.518 21.1295V6.91511C133.518 4.8296 133.63 3.40267 134.86 2.08551C136.761 0.0548818 139.781 0 140.787 0C148 0 148 4.17102 148 6.037V10.0434L143.135 10.0983Z" fill="#152733"/>
<path d="M8.49867 8.8349H16.9973C17.0532 4.22483 13.2512 0.437988 8.55458 0.437988C3.85795 0.437988 0 4.16995 0 8.78002C0 13.3901 3.80204 17.1769 8.49867 17.1769V8.8349Z" fill="#152733"/>
<path d="M10.176 18.8249H1.62146C1.62146 23.435 5.4235 27.2219 10.1201 27.2219C14.8168 27.2219 18.6747 23.4899 18.6747 18.8798C18.6747 14.2698 14.8727 10.4829 10.176 10.4829C10.176 10.4829 10.176 10.4829 10.1201 10.4829V18.8249H10.176Z" fill="#F1592A"/>
</svg>
